PathFileType	4	(X/Y/Z)	D:\TRACE\v60_Jaco2_6-2-23\JustBodyDRS_Motion3_4-v60.trc
DataRate	CameraRate	NumFrames	NumMarkers	Units	OrigDataRate	OrigDataStartFrame	OrigNumFrames
100.00	100.00	      35	9	mm	100.00	4376	      7000
Frame#	Time	front left toe			Front right toe			aft left toe			aft right toe			Arm			FL body			FR body			AL Body			AR Body			
		X1	Y1	Z1	X2	Y2	Z2	X3	Y3	Z3	X4	Y4	Z4	X5	Y5	Z5	X6	Y6	Z6	X7	Y7	Z7	X8	Y8	Z8	X9	Y9	Z9	

4376	43.750	-146.33926	1.69384	-113.71550	217.21724	65.31475	-126.88327	-153.07721	123.17004	491.73059	232.41602	59.18692	503.94003	49.45901	1191.81348	-191.56119	-34.93655	552.92944	-256.59396	123.49194	552.04254	-254.85001	-35.31310	616.47833	686.16656	117.15405	605.86462	686.60339	
4377	43.760	-146.25674	1.41539	-113.62899	220.20380	78.37456	-126.72245	-154.83638	136.09286	492.42661	232.75926	58.97219	503.86755	49.72650	1191.54700	-190.67160	-34.99501	552.61304	-256.01895	123.04105	551.87085	-254.52463	-34.33276	615.97876	686.51904	118.33733	605.06561	686.93298	
4378	43.770	-146.27444	1.27622	-113.56271	220.49228	90.78874	-126.95344	-155.40234	148.32574	493.58621	233.12692	58.59156	504.05600	50.33290	1191.27783	-189.74428	-35.48850	552.28418	-255.23622	122.89262	551.47131	-254.24203	-33.75618	615.04877	686.87878	118.74602	604.29224	687.41272	
4379	43.780	-146.08270	1.19125	-113.38142	223.70158	103.43905	-125.26093	-155.08627	159.58385	495.08356	233.41438	58.36066	504.10648	50.71268	1191.07117	-189.15517	-35.65021	552.01276	-254.66928	123.25864	551.13086	-254.09482	-33.44983	614.63080	687.44672	119.17686	603.71082	687.78638	
4380	43.790	-145.89902	1.22929	-113.20907	224.19865	114.73103	-124.94900	-155.45908	171.05193	495.91092	233.67885	58.20011	504.15112	50.86765	1190.78540	-188.57828	-35.74586	551.80890	-254.29123	122.97565	550.84827	-253.59550	-33.00964	614.27942	687.98450	119.67719	603.29919	688.13434	
4381	43.800	-145.85323	1.23935	-113.13085	223.40088	124.37650	-124.59142	-154.41814	180.27159	497.23343	233.80289	58.03089	504.12943	50.58809	1190.42517	-188.09760	-36.31585	551.60925	-254.09169	122.26750	550.63757	-253.02263	-32.41277	613.80444	688.55634	120.34940	602.92981	688.51831	
4382	43.810	-145.74911	1.24775	-113.03645	224.11537	131.57146	-122.95383	-153.75125	187.90959	498.17468	234.14041	58.00750	504.20837	50.08888	1190.14514	-187.68390	-36.70265	551.59253	-253.47580	121.87383	550.54877	-252.65616	-31.87850	613.27679	688.61713	120.66889	602.61816	688.95325	
4383	43.820	-145.61012	1.29102	-112.84692	223.76714	135.68373	-121.23092	-153.81635	192.07191	499.90152	234.31723	57.70783	504.21942	49.34664	1190.03125	-187.19344	-36.71817	551.36121	-252.64558	121.53017	550.56720	-252.29971	-31.27785	612.99268	689.33160	121.10454	602.40863	689.55841	
4384	43.830	-145.43558	1.34163	-112.69234	224.03596	136.77876	-119.36044	-154.25081	193.75366	501.62576	234.67314	57.61139	504.33875	48.66255	1190.04858	-186.45227	-36.83382	551.50104	-252.06247	122.08767	550.23328	-251.77580	-31.08453	613.01929	690.08276	121.57142	602.16901	690.15259	
4385	43.840	-145.27977	1.42228	-112.64480	223.51613	134.72200	-117.94920	-154.83846	192.16827	503.76593	235.07816	57.44936	504.47388	48.18241	1190.13293	-185.87494	-37.42712	551.71979	-251.46393	121.31718	550.22571	-251.42102	-30.41528	613.11169	690.85394	121.86619	602.08856	690.47406	
4386	43.850	-145.13440	1.50222	-112.67740	225.68335	131.57480	-115.77967	-155.53296	189.07472	505.70938	235.38309	57.24314	504.48795	48.03891	1190.26636	-184.99210	-38.11639	551.93835	-250.90193	120.83677	550.35352	-251.03976	-30.28353	612.94635	691.33228	122.61187	602.05719	690.92908	
4387	43.860	-144.96518	1.65299	-112.49706	225.71758	126.50686	-114.03620	-155.13118	184.80862	507.96344	235.65340	57.10020	504.53418	48.16607	1190.46643	-184.32268	-38.15914	551.68738	-250.20409	120.64510	550.61230	-250.57616	-29.85669	612.83801	691.76563	123.59918	601.20367	690.37628	
4388	43.870	-144.84869	1.56382	-112.33793	225.37283	120.74578	-112.50596	-154.89502	179.63843	510.38831	235.82294	57.03283	504.55655	48.14432	1190.61011	-183.59065	-38.87262	552.04211	-249.58652	119.96808	550.93170	-250.03397	-29.47821	612.67603	692.53235	123.95247	601.12347	690.68463	
4389	43.880	-144.59447	1.51175	-112.20625	224.48190	113.66848	-111.13202	-154.75098	173.28752	512.67670	235.96581	56.97517	504.54520	48.00140	1190.67529	-182.70250	-39.26926	552.32458	-248.84325	118.91353	551.00208	-249.11348	-29.33744	612.55341	693.13898	122.40893	602.19348	692.72937	
4390	43.890	-144.22392	1.52802	-112.06303	224.06367	106.24848	-109.68179	-153.88080	164.73946	515.39905	236.11856	56.87497	504.54965	47.49274	1190.97095	-181.84454	-39.46107	552.37793	-248.38226	118.77850	551.14569	-248.56589	-29.00992	612.31750	693.69971	122.64311	602.03644	693.48450	
4391	43.900	-143.98373	1.52934	-111.95014	222.91122	97.22950	-108.75574	-154.61433	156.11273	517.56293	236.36407	56.85215	504.61475	46.52962	1191.16699	-180.98218	-40.09171	552.46082	-247.85027	119.00394	551.29047	-248.56648	-28.65006	612.11206	694.24774	122.72072	601.94745	693.81952	
4392	43.910	-143.87082	1.55491	-111.93745	222.11803	87.77997	-107.16442	-155.46980	146.17381	519.67834	236.77647	56.74693	504.64081	45.72435	1191.12524	-180.20935	-40.53167	552.42004	-246.93507	118.37168	551.31171	-247.89819	-28.56437	611.74969	694.97253	122.87498	601.56964	694.30499	
4393	43.920	-143.76454	1.44793	-111.81989	222.10954	77.88124	-105.22837	-156.03432	135.84076	522.12488	237.00494	56.49035	504.71176	44.91829	1190.92505	-179.52072	-40.76752	552.42615	-246.43791	117.38394	551.34711	-246.72755	-28.68673	611.31665	695.70630	123.00763	601.00140	695.18976	
4394	43.930	-143.49565	1.27313	-111.75119	222.31929	67.30699	-102.76647	-156.43430	125.91985	523.94659	237.18115	56.30672	504.71246	44.50495	1190.75146	-178.79279	-41.63197	552.47235	-246.00404	116.98866	551.37750	-246.69440	-28.48246	610.90302	696.07770	122.93213	600.74799	695.72559	
4395	43.940	-143.20370	1.15204	-111.66761	222.15768	56.72521	-100.59536	-156.66983	116.51888	525.21362	237.23531	56.08194	504.68246	44.09081	1190.72900	-178.05278	-41.94926	552.45203	-244.91476	116.84731	551.25439	-246.16470	-28.74508	610.55341	696.89178	122.88881	600.51941	696.31622	
4396	43.950	-143.00662	1.11147	-111.59567	221.64932	47.51499	-99.31866	-156.64549	107.20039	526.37396	237.57912	56.03387	504.71158	43.90708	1190.77905	-177.03403	-42.05331	552.38788	-244.37175	116.17463	551.28003	-244.93263	-29.13864	610.13556	697.73322	122.91634	600.32166	697.07874	
4397	43.960	-142.79221	1.10177	-111.52202	221.14995	38.73794	-98.23895	-156.75412	98.37597	527.13519	237.77025	55.48260	504.36823	43.72629	1190.82861	-176.04005	-42.76101	552.51202	-243.66507	115.64748	551.61163	-244.74080	-29.26305	609.80322	698.44385	122.74723	599.03168	696.82025	
4398	43.970	-142.65788	1.07603	-111.43295	220.52827	30.53002	-97.59734	-157.00803	89.76115	527.41455	238.13568	55.90545	505.06241	43.29629	1191.03320	-174.82788	-43.24295	552.77466	-242.92661	115.60356	551.81598	-244.12216	-29.34249	609.40741	699.09271	122.31822	598.48218	697.25781	
4399	43.980	-142.59648	1.08438	-111.43135	219.47273	23.47309	-97.77946	-157.67575	82.32839	527.73059	238.10304	54.85012	504.77307	42.83614	1191.25720	-173.50569	-43.74842	553.09180	-242.53983	115.30807	551.91608	-243.37761	-29.71717	608.81891	699.53735	121.89458	598.12482	698.07159	
4400	43.990	-142.55295	1.18327	-111.39292	219.22984	17.58917	-97.66928	-158.22401	75.77111	527.60541	238.52554	55.53544	505.34735	41.93094	1191.37378	-172.43982	-44.27090	553.23322	-241.61398	114.28781	552.15790	-242.53159	-29.87998	608.37097	700.75555	121.61984	597.66382	698.76245	
4401	44.000	-142.34195	1.27148	-111.36586	219.45139	11.86669	-97.11797	-158.75963	69.31736	527.47571	238.52695	55.35701	505.35397	41.27767	1191.64819	-171.08742	-44.50932	553.25543	-240.61557	114.19240	552.52490	-241.99026	-30.19725	607.74872	701.65112	121.33529	596.99292	699.68689	
4402	44.010	-142.07883	1.24191	-111.29498	219.35617	9.20403	-98.81364	-160.06699	63.64719	527.49622	238.69087	55.29055	505.40491	40.55171	1191.97412	-169.86792	-45.13329	553.62842	-240.01671	113.57540	552.53778	-240.92273	-30.55429	607.53589	702.33551	121.05252	596.78741	700.42889	
4403	44.020	-141.67705	1.17408	-111.13023	219.64299	6.66574	-99.44930	-160.00055	61.56419	527.27191	238.80402	55.18557	505.44189	40.06910	1192.12500	-168.51384	-45.76883	553.95813	-239.11734	113.18604	553.25476	-240.39978	-30.95573	607.40704	703.35028	120.86066	596.52264	701.32263	
4404	44.030	-141.41681	1.37671	-110.99028	220.49521	6.57811	-98.64577	-161.02663	61.83793	526.63495	238.86436	55.39122	505.73181	39.56863	1192.53369	-167.17970	-46.44579	554.70612	-238.32545	112.75639	553.93756	-239.31752	-31.31438	607.98175	704.31323	119.90927	597.34381	702.17181	
4405	44.040	-141.22411	1.63693	-111.07776	220.26804	8.08384	-98.21732	-160.62544	60.97416	526.76782	238.95235	55.41585	505.61920	38.73637	1193.62317	-166.01907	-46.92985	555.23145	-236.82294	111.89296	554.61810	-238.35765	-31.40253	609.30029	705.39014	119.86827	598.38867	703.18359	
4406	44.050	-141.37450	3.26989	-110.54965	219.76956	7.56877	-97.36057	-160.45950	60.35297	527.67682	238.73549	57.15365	505.84702	37.54958	1195.01794	-165.27226	-47.99084	555.91998	-235.87527	110.45523	555.33997	-237.39355	-31.46460	610.47778	705.72687	119.72697	599.42212	704.09662	
4407	44.060	-140.10349	7.82399	-108.51871	219.43398	7.40670	-97.66817	-159.84695	59.40123	527.24933	236.49713	59.89364	508.47577	36.48532	1195.98999	-164.94688	-48.62806	557.01208	-234.74284	109.58893	556.17450	-236.38510	-31.28701	611.74896	708.25208	119.72979	599.89960	704.70123	
4408	44.070	-137.75113	12.39349	-104.01592	220.05125	7.46587	-97.52218	-159.59077	59.06005	527.53040	232.60413	65.61239	511.71445	35.36873	1196.42603	-164.70299	-49.13897	557.55328	-234.16972	109.57715	557.14209	-236.03584	-31.75839	611.83795	708.60120	119.52809	600.05255	705.37750	
4409	44.080	-135.45436	22.32257	-101.84241	219.95125	6.96318	-97.98847	-159.84122	59.24809	527.41968	229.38084	74.58926	513.12640	34.54596	1196.45276	-164.20374	-49.77277	557.89337	-233.77527	108.69123	557.40070	-235.49431	-32.01248	611.83783	709.21539	119.38574	600.19348	705.98724	
4410	44.090	-134.39488	33.35501	-101.55019	218.74927	6.17980	-98.30563	-159.20616	58.43759	527.76001	226.67236	85.69221	513.23706	34.07424	1196.30774	-163.46368	-50.14764	557.90881	-233.28622	108.21198	557.43909	-234.76805	-31.93221	611.99377	710.02948	119.16322	600.32581	706.38788	
